<?xml version="1.0" encoding="utf-8"?>
<!-- Generator: Adobe Illustrator 22.1.0, SVG Export Plug-In . SVG Version: 6.00 Build 0)  -->
<svg version="1.1" id="Слой_1" xmlns="http://www.w3.org/2000/svg" xmlns:xlink="http://www.w3.org/1999/xlink" x="0px" y="0px"
	 viewBox="0 0 20.3 13.9" style="enable-background:new 0 0 20.3 13.9;" xml:space="preserve">
<style type="text/css">
	.st0{clip-path:url(#SVGID_2_);}
</style>
<g>
	<defs>
		<rect id="SVGID_1_" y="0" width="20.3" height="13.9"/>
	</defs>
	<clipPath id="SVGID_2_">
		<use xlink:href="#SVGID_1_"  style="overflow:visible;"/>
	</clipPath>
	<path class="st0" d="M20.1,4.5L10.3,0c-0.1,0-0.2,0-0.3,0L0.2,4.5C0.1,4.6,0,4.7,0,4.8c0,0.1,0.1,0.3,0.2,0.3l4.3,1.9
		c0,0,0,0.1,0,0.1v4.4c0,0.2,0.2,2.4,5.7,2.4s5.7-2.1,5.7-2.4V7.2c0,0,0-0.1,0-0.1l2-0.9V11c-0.2,0-0.3,0.1-0.3,0.3s0.1,0.3,0.3,0.3
		h0.7c0.2,0,0.3-0.2,0.3-0.3S18.8,11,18.6,11V5.8l1.6-0.7c0.1-0.1,0.2-0.2,0.2-0.3C20.3,4.7,20.3,4.6,20.1,4.5 M15.2,11.5
		c0,0-0.2,1.7-5,1.7s-5-1.7-5-1.7V7.4L10,9.6c0,0,0.1,0,0.1,0c0,0,0.1,0,0.1,0l4.9-2.2V11.5z M10.2,8.9l-9-4.1l9-4.1l9,4.1L10.2,8.9
		z"/>
</g>
</svg>
