<?xml version="1.0" encoding="utf-8"?>
<!-- Generator: Adobe Illustrator 22.1.0, SVG Export Plug-In . SVG Version: 6.00 Build 0)  -->
<svg version="1.1" id="Режим_изоляции"
	 xmlns="http://www.w3.org/2000/svg" xmlns:xlink="http://www.w3.org/1999/xlink" x="0px" y="0px" viewBox="0 0 64.6 64.6"
	 style="enable-background:new 0 0 64.6 64.6;" xml:space="preserve">
<style type="text/css">
	.st0{fill-rule:evenodd;clip-rule:evenodd;}
</style>
<path class="st0" d="M45.3,6.1c3.1,0.1,4.8,0.7,6,1.1c1.5,0.6,2.6,1.3,3.7,2.4c1.1,1.1,1.8,2.2,2.4,3.7c0.4,1.1,1,2.8,1.1,6
	c0.4,8.6,0.4,17.4,0,26c-0.1,3.1-0.7,4.8-1.1,6c-0.6,1.5-1.3,2.6-2.4,3.7c-1.1,1.1-2.2,1.8-3.7,2.4c-1.1,0.4-2.8,1-6,1.1
	c-8.6,0.4-17.4,0.4-26,0c-3.1-0.1-4.8-0.7-6-1.1c-1.5-0.6-2.6-1.3-3.7-2.4c-1.1-1.1-1.8-2.2-2.4-3.7c-0.4-1.1-1-2.8-1.1-6
	c-0.4-8.6-0.4-17.4,0-26c0.1-3.1,0.7-4.8,1.1-6c0.6-1.5,1.3-2.6,2.4-3.7c1.1-1.1,2.2-1.8,3.7-2.4c1.1-0.4,2.8-1,6-1.1
	C27.9,5.7,36.7,5.7,45.3,6.1L45.3,6.1z M19,0.3c-3.4,0.2-5.8,0.7-7.8,1.5C9.1,2.6,7.3,3.7,5.5,5.5c-1.8,1.8-2.9,3.6-3.7,5.7
	c-0.8,2-1.3,4.4-1.5,7.8c-0.4,8.8-0.4,17.7,0,26.6C0.5,49,1,51.4,1.8,53.4c0.8,2.1,1.9,3.9,3.7,5.7c1.8,1.8,3.6,2.9,5.7,3.7
	c2,0.8,4.4,1.3,7.8,1.5c8.8,0.4,17.7,0.4,26.6,0c3.4-0.2,5.8-0.7,7.8-1.5c2.1-0.8,3.9-1.9,5.7-3.7c1.8-1.8,2.9-3.6,3.7-5.7
	c0.8-2,1.3-4.4,1.5-7.8c0.4-8.8,0.4-17.7,0-26.6c-0.2-3.4-0.7-5.8-1.5-7.8c-0.8-2.1-1.9-3.9-3.7-5.7c-1.8-1.8-3.6-2.9-5.7-3.7
	c-2-0.8-4.4-1.3-7.8-1.5C36.8-0.1,27.8-0.1,19,0.3L19,0.3z M32.3,15.8c-9.1,0-16.5,7.4-16.5,16.5c0,9.1,7.4,16.5,16.5,16.5
	c9.1,0,16.5-7.4,16.5-16.5C48.8,23.2,41.4,15.8,32.3,15.8L32.3,15.8z M32.3,43c-5.9,0-10.7-4.8-10.7-10.7c0-5.9,4.8-10.7,10.7-10.7
	c5.9,0,10.7,4.8,10.7,10.7C43,38.2,38.2,43,32.3,43L32.3,43z M53.4,15.1c0,2.1-1.7,3.9-3.9,3.9c-2.1,0-3.9-1.7-3.9-3.9
	c0-2.1,1.7-3.9,3.9-3.9C51.6,11.3,53.4,13,53.4,15.1L53.4,15.1z"/>
</svg>
