<?xml version="1.0" encoding="utf-8"?>
<!-- Generator: Adobe Illustrator 22.1.0, SVG Export Plug-In . SVG Version: 6.00 Build 0)  -->
<svg version="1.1" id="Слой_1" xmlns="http://www.w3.org/2000/svg" xmlns:xlink="http://www.w3.org/1999/xlink" x="0px" y="0px"
	 viewBox="0 0 1329.1 318" style="enable-background:new 0 0 1329.1 318;" xml:space="preserve">
<style type="text/css">
	.st0{fill:#FFFFFF;}
	.st1{fill:#FFFFFF;fill-opacity:0.5;}
</style>
<path class="st0" d="M407.8,197.7c6.3-7.5,11.9-15.5,16.6-24c4.7-8.5,8.4-17.4,11.1-26.5c2.6-9.1,4.1-18.5,4.2-27.8
	c0.1-9.2-1.4-18.4-4.8-26.5c-3.3-8.1-8.6-15-15.4-19.8c-3.4-2.4-7.2-4.3-11.2-5.6c-2-0.7-4.1-1.2-6.2-1.7c-2.1-0.5-4.2-0.7-6.3-0.9
	c-8.3-0.6-16.2,1.3-23.6,5.7c-1.8,1.1-3.6,2.3-5.4,3.7c-1.8,1.3-3.5,2.8-5.2,4.3c-3.4,3.1-6.6,6.5-9.8,10.1
	c-3.2,3.6-6.2,7.4-9.3,11.3c-3.1,3.9-6.1,7.9-9.1,11.9c-6.1,8.1-12.2,16.2-18.9,24.1c-3.4,3.9-6.9,7.8-10.6,11.4
	c-3.7,3.7-7.6,7.2-11.8,10.4c-4.2,3.2-8.7,6.1-13.4,8.5c-4.8,2.4-10,4.3-15.5,5c-2.7,0.4-5.6,0.4-8.3,0.1c-2.8-0.3-5.5-1-8.1-2
	c-4.2-1.7-8-4.1-11.2-7c17.6,43.1,59.9,73.5,109.3,73.5c6.5,0,12.9-0.5,19.2-1.6C380.5,224.5,395.6,212.2,407.8,197.7z"/>
<path class="st0" d="M344.7,0c-65.2,0-118,52.8-118,118c0,12,1.8,23.6,5.1,34.5c1.5,1.6,3,3.1,4.7,4.5c3.7,3.1,7.7,5.6,12.1,7
	c4.3,1.4,8.9,1.5,13.4,0.6c4.5-0.9,8.8-2.8,12.9-5.1c4.1-2.4,8-5.3,11.6-8.4c3.6-3.2,7-6.6,10.2-10.3c3.2-3.7,6.2-7.6,9.1-11.5
	c5.8-8,11-16.4,16.4-25c2.7-4.3,5.4-8.6,8.2-12.9c2.9-4.3,5.8-8.5,9-12.7c1.6-2.1,3.3-4.2,5-6.2c1.8-2,3.6-4,5.5-6
	c3.9-3.9,8.2-7.6,13.1-10.7c4.9-3.1,10.4-5.6,16.3-7.1c2.9-0.8,5.9-1.2,8.9-1.5c3-0.2,6-0.3,8.9,0c5.9,0.5,11.5,1.8,17,3.7
	c5.5,2,10.8,4.8,15.5,8.2c9.6,7.1,16.6,17.1,20.5,27.8c2,5.3,3.3,10.9,4,16.4c0.8,5.5,0.9,11,0.7,16.5c-0.6,10.9-2.8,21.5-6.4,31.6
	c-3.5,10-8.3,19.5-14.1,28.3c-5.8,8.8-12.5,16.9-19.8,24.2c-11.8,11.5-25.2,21.1-39.7,28.3c50.6-13.3,87.9-59.4,87.9-114.1
	C462.7,52.8,409.9,0,344.7,0z"/>
<ellipse class="st1" cx="345.5" cy="310.9" rx="67" ry="7.3"/>
<path class="st0" d="M131.3,318l-67-103.1V318H0V84.6h64.3V183L126,84.6h74.6l-74.8,113.1L207.6,318H131.3z"/>
<path class="st0" d="M583.5,246.6h-23.3V318h-64.3V84.6H597c50.3,0,86.8,33.8,86.8,82.6c0,28.7-14,52.1-37.1,65.9l46.4,84.9h-71.8
	L583.5,246.6z M560.2,192.4h29.4c18,0,28.3-10.8,28.3-25.4s-10.3-25.3-28.3-25.3h-29.4V192.4z"/>
<path class="st0" d="M915.1,142.5h-63.4V318h-64.6V142.5h-63.4V84.6h191.4V142.5z"/>
<g>
	<g>
		<path class="st0" d="M1111.4,84.7V318h-62.9V137.6h-34.6V84.7H1111.4z"/>
		<path class="st0" d="M1329.1,262.7V318h-173.6v-14.2c93.9-110.7,106.8-128.6,106.8-148.7c0-12.7-8.3-21.1-20.3-21.1
			c-13.1,0-21.1,8.8-21.1,22.9v4.5h-61.7v-4.3c0-47.2,30.9-78.4,82-78.4c49.5,0,83.7,30.4,83.7,74.2c0,29.4-10.9,51.9-60.8,109.7
			H1329.1z"/>
	</g>
</g>
</svg>
