<?xml version="1.0" encoding="utf-8"?>
<!-- Generator: Adobe Illustrator 22.1.0, SVG Export Plug-In . SVG Version: 6.00 Build 0)  -->
<svg version="1.1" id="Слой_1" xmlns="http://www.w3.org/2000/svg" xmlns:xlink="http://www.w3.org/1999/xlink" x="0px" y="0px"
	 viewBox="0 0 95 37" style="enable-background:new 0 0 95 37;" xml:space="preserve">
<g>
	<g>
		<path d="M14.5,0H7.4v7.3h7.1V0z M7.1,0H0l7.1,7.3V0z M14.8,7.3h7.1V0h-7.1V7.3z M29.2,0h-7.1v7.3h7.1V0z M29.4,0v7.3h7.1L29.4,0z
			 M29.4,14.8h7.1V7.5h-7.1V14.8z M22.3,22.2h7.1v-7.3h-7.1V22.2z M29.4,29.6h7.1v-7.3h-7.1V29.6z M36.5,36.9h7.1v-7.3h-7.1V36.9z
			 M7.4,37h7.1v-7.3H7.4V37z M7.2,37v-7.3H0.1L7.2,37z M14.5,29.7h7.1v-7.3h-7.1V29.7z M7.2,22.2H0.1v7.3h7.1V22.2z M0.1,22.1h7.1
			v-7.3H0.1V22.1z M55.2,12.3h1.5l1.9,2.9h2.3L58.7,12c1.1-0.4,1.9-1.3,1.9-2.8c0-0.9-0.3-1.6-0.8-2.1c-0.6-0.6-1.4-0.9-2.6-0.9h-4
			v9h1.9V12.3z M55.2,8h1.9c0.9,0,1.5,0.4,1.5,1.3c0,0.8-0.5,1.3-1.5,1.3h-2V8z M69,13.4h-4.8v-1.9h4.1V9.8h-4.1V7.9h4.7V6.2h-6.6v9
			H69V13.4z M78.4,13.8l-1.2-1.3c-0.7,0.6-1.3,1-2.3,1c-1.5,0-2.5-1.3-2.5-2.8c0-1.6,1.1-2.8,2.5-2.8c1,0,1.6,0.4,2.3,1l1.2-1.4
			C77.4,6.7,76.5,6,74.8,6c-2.7,0-4.6,2.1-4.6,4.6c0,2.6,1.9,4.6,4.5,4.6C76.5,15.3,77.5,14.8,78.4,13.8z M87.3,15.2v-9h-1.9v3.5
			h-3.6V6.2h-1.9v9h1.9v-3.6h3.6v3.6H87.3z M91.4,6.2h-1.9v9h1.9V6.2z M57.6,25.3l-2.3-3.8h-2.1v9h1.9v-5.8l2.4,3.8h0.1l2.5-3.8v5.8
			H62v-9h-2.1L57.6,25.3z M66,26.9h4.1v-1.8H66v-1.8h4.7v-1.8h-6.6v9h6.7v-1.8H66V26.9z M75.9,21.6h-3.4v9h3.4c2.8,0,4.7-2,4.7-4.5
			C80.6,23.5,78.7,21.6,75.9,21.6z M75.9,28.7h-1.5v-5.4h1.5c1.6,0,2.6,1.1,2.6,2.7C78.5,27.6,77.5,28.7,75.9,28.7z M82.4,30.5h1.9
			v-9h-1.9V30.5z M91.2,21.5h-1.8l-3.8,9h2l0.8-2h3.7l0.8,2h2L91.2,21.5z M89.2,26.8l1.2-2.9l1.2,2.9H89.2z"/>
	</g>
</g>
</svg>
