<?xml version="1.0" standalone="no"?>
<!DOCTYPE svg PUBLIC "-//W3C//DTD SVG 20010904//EN"
 "http://www.w3.org/TR/2001/REC-SVG-20010904/DTD/svg10.dtd">
<svg version="1.0" xmlns="http://www.w3.org/2000/svg"
 width="260.000000pt" height="260.000000pt" viewBox="0 0 260.000000 260.000000"
 preserveAspectRatio="xMidYMid meet">
<metadata>
Created by potrace 1.11, written by Peter Selinger 2001-2013
</metadata>
<g transform="translate(0.000000,260.000000) scale(0.100000,-0.100000)"
fill="#000000" stroke="none">
<path d="M1098 2271 c-330 -72 -586 -284 -721 -595 -50 -115 -70 -229 -70
-386 0 -168 17 -243 96 -425 56 -128 201 -299 320 -378 91 -61 207 -115 302
-143 73 -22 118 -27 237 -31 133 -5 156 -3 262 21 355 83 623 336 733 693 25
82 27 100 27 268 0 154 -3 191 -22 258 -78 282 -278 521 -535 642 -135 64
-235 87 -397 91 -116 3 -162 0 -232 -15z m731 -386 c192 -46 339 -198 387
-401 20 -86 15 -290 -10 -378 -61 -218 -196 -429 -373 -581 -84 -72 -216 -158
-243 -158 -8 0 -21 -4 -28 -10 -9 -7 -11 -6 -6 7 6 16 16 20 42 17 6 -1 12 6
12 16 0 10 19 32 41 48 56 41 189 183 243 258 106 150 178 330 198 494 38 328
-121 547 -396 545 -59 -1 -81 -6 -141 -36 -101 -51 -183 -134 -355 -361 -119
-156 -231 -284 -289 -329 -46 -37 -89 -56 -75 -35 3 5 -2 9 -11 9 -9 0 -14 -3
-12 -7 3 -5 -2 -15 -11 -23 -14 -13 -15 -12 -8 5 4 11 9 25 10 31 1 6 30 42
65 80 35 38 106 134 159 214 52 80 128 195 168 256 133 201 271 316 419 347
46 10 154 6 214 -8z"/>
<path d="M825 1009 c-3 -4 2 -6 10 -5 21 3 28 13 10 13 -9 0 -18 -4 -20 -8z"/>
</g>
</svg>
