<?xml version="1.0" encoding="utf-8"?>
<!-- Generator: Adobe Illustrator 22.1.0, SVG Export Plug-In . SVG Version: 6.00 Build 0)  -->
<svg version="1.1" id="Слой_1" xmlns="http://www.w3.org/2000/svg" xmlns:xlink="http://www.w3.org/1999/xlink" x="0px" y="0px"
	 viewBox="0 0 27.4 29" style="enable-background:new 0 0 27.4 29;" xml:space="preserve">
<style type="text/css">
	.st0{fill:none;stroke:#ffffff;stroke-width:1.6;stroke-linecap:round;stroke-linejoin:round;stroke-miterlimit:10;}
</style>
<path class="st0" d="M8.4,16.3c1-0.7,1.9-0.3,2.2,0"/>
<path class="st0" d="M16.8,16.3c1-0.7,1.9-0.3,2.2,0"/>
<path class="st0" d="M23.7,18.4c0,5.5-4.4,9.7-9.9,9.7l0,0c-5.5,0-9.9-4.2-9.9-9.7"/>
<path class="st0" d="M15.9,22.7C15.6,23.4,15,24,13.8,24c-1.1,0-1.9-0.6-2.1-1.3"/>
<path class="st0" d="M14.1,16.7c0,0-0.9,1.5-0.9,3.9h1.7"/>
<path class="st0" d="M25.7,14.2"/>
<path class="st0" d="M23.7,18.6L23.7,18.6c0,0-0.1-4.1,2.1-4.1l0,0"/>
<g>
	<path class="st0" d="M1,15.8v2.7c0,1,0.8,1.8,1.8,1.8l0,0"/>
	<line class="st0" x1="3.6" y1="20.3" x2="2.8" y2="20.3"/>
</g>
<g>
	<path class="st0" d="M26.3,15.8v2.7c0,1-0.8,1.8-1.8,1.8l0,0"/>
	<line class="st0" x1="24.5" y1="20.3" x2="23.7" y2="20.3"/>
</g>
<path class="st0" d="M25.7,14.4c0.7,0,0.7-0.9,0.7-0.9c0-7-5.7-12.7-12.7-12.7l0,0C6.7,0.8,1,6.5,1,13.5c0,0-0.1,1.1,0.7,1
	c2.1,0,2.1,3.8,2.1,3.8"/>
<path class="st0" d="M22.3,16.9v-3.3c-2,0.2-4.6-2.7-4.6-2.7C14,14.5,5.3,13.5,5.3,13.5v3.4"/>
</svg>
