<?xml version="1.0" encoding="utf-8"?>
<!-- Generator: Adobe Illustrator 22.1.0, SVG Export Plug-In . SVG Version: 6.00 Build 0)  -->
<svg version="1.1" id="Слой_1" xmlns="http://www.w3.org/2000/svg" xmlns:xlink="http://www.w3.org/1999/xlink" x="0px" y="0px"
	 viewBox="0 0 28 37.6" style="enable-background:new 0 0 28 37.6;" xml:space="preserve">
<style type="text/css">
	.st0{fill:none;stroke:#0d227d;stroke-width:1.6;stroke-linecap:round;stroke-linejoin:round;stroke-miterlimit:10;}
</style>
<path class="st0" d="M8.5,16.5c1-0.7,1.9-0.3,2.2,0"/>
<path class="st0" d="M17,16.5c1-0.7,1.9-0.3,2.2,0"/>
<path class="st0" d="M23.8,18.6c0,5.5-4.4,9.7-9.9,9.7l0,0C8.4,28.2,4,24,4,18.6"/>
<path class="st0" d="M20.9,25.6c3.7,2.3,6.1,6.4,6.1,11.1"/>
<path class="st0" d="M1,36.8c0-4.7,2.4-8.8,6.1-11.1"/>
<path class="st0" d="M16,22.8c-0.3,0.6-0.9,1.3-2.1,1.3c-1.1,0-1.9-0.6-2.1-1.3"/>
<path class="st0" d="M14.3,16.9c0,0-0.9,1.5-0.9,3.9H15"/>
<path class="st0" d="M25.9,14.3"/>
<path class="st0" d="M23.8,18.7L23.8,18.7c0,0-0.1-4.1,2.1-4.1l0,0"/>
<g>
	<path class="st0" d="M1.1,15.9v2.7c0,1,0.8,1.8,1.8,1.8l0,0"/>
	<line class="st0" x1="3.8" y1="20.4" x2="2.9" y2="20.4"/>
</g>
<g>
	<path class="st0" d="M26.5,15.9v2.7c0,1-0.8,1.8-1.8,1.8l0,0"/>
	<line class="st0" x1="24.6" y1="20.4" x2="23.8" y2="20.4"/>
</g>
<path class="st0" d="M25.9,14.6c0.7,0,0.7-0.9,0.7-0.9c0-7-5.7-12.7-12.7-12.7l0,0C6.9,1,1.2,6.7,1.2,13.7c0,0-0.1,1.1,0.7,1
	C4,14.7,4,18.6,4,18.6"/>
<path class="st0" d="M22.4,17v-3.3c-2,0.2-4.6-2.7-4.6-2.7c-3.6,3.7-12.3,2.6-12.3,2.6V17"/>
<path class="st0" d="M9,34.1"/>
</svg>
