<?xml version="1.0" encoding="utf-8"?>
<!-- Generator: Adobe Illustrator 22.1.0, SVG Export Plug-In . SVG Version: 6.00 Build 0)  -->
<svg version="1.1" id="Слой_1" xmlns="http://www.w3.org/2000/svg" xmlns:xlink="http://www.w3.org/1999/xlink" x="0px" y="0px"
	 viewBox="0 0 21.6 25.4" style="enable-background:new 0 0 21.6 25.4;" xml:space="preserve">
<style type="text/css">
	.st0{fill:#23e54c;}
</style>
<path class="st0" d="M4.6,5.8c-0.5,0-0.9-0.4-0.9-0.9v-4C3.6,0.4,4.1,0,4.6,0s0.9,0.4,0.9,0.9v4C5.5,5.4,5.1,5.8,4.6,5.8z"/>
<path class="st0" d="M17,5.8c-0.5,0-0.9-0.4-0.9-0.9v-4C16.1,0.4,16.5,0,17,0c0.5,0,0.9,0.4,0.9,0.9v4C17.9,5.4,17.5,5.8,17,5.8z"/>
<path class="st0" d="M20.7,9.6H0.9C0.4,9.6,0,9.1,0,8.6s0.4-0.9,0.9-0.9h19.7c0.5,0,0.9,0.4,0.9,0.9S21.2,9.6,20.7,9.6z"/>
<path class="st0" d="M11.3,25.4H3.1c-1.7,0-3.1-1.4-3.1-3.1V5.2c0-1.7,1.4-3.1,3.1-3.1h15.5c1.7,0,3.1,1.4,3.1,3.1V19
	c0,0.5-0.4,0.9-0.9,0.9c-0.5,0-0.9-0.4-0.9-0.9V5.2c0-0.7-0.5-1.2-1.2-1.2H3.1c-0.7,0-1.2,0.5-1.2,1.2v17.2c0,0.7,0.5,1.2,1.2,1.2
	h8.2c0.5,0,0.9,0.4,0.9,0.9C12.2,25,11.8,25.4,11.3,25.4z"/>
<path class="st0" d="M10.7,19.7c-0.5,0-0.9-0.4-0.9-0.9v-4.6l-0.3,0.3c-0.4,0.4-0.9,0.4-1.3,0c-0.4-0.4-0.4-0.9,0-1.3l1.9-1.9
	c0.3-0.3,0.7-0.3,1-0.2c0.3,0.1,0.6,0.5,0.6,0.8v6.9C11.6,19.2,11.2,19.7,10.7,19.7z"/>
<path class="st0" d="M11.3,25.4c-0.4,0-0.8-0.3-0.9-0.8c-0.1-0.5,0.2-0.9,0.7-1c0,0,2.2-0.6,3.1-2.3c0.6-1,0.6-2.3,0.2-3.8
	c-0.1-0.3,0-0.7,0.2-0.9c0.2-0.2,0.6-0.3,0.9-0.2l5.4,1.6c0.4,0.1,0.7,0.5,0.7,0.9v0.3c0,0,0,0.1,0,0.1
	C20.9,24.4,11.7,25.4,11.3,25.4C11.3,25.4,11.3,25.4,11.3,25.4z M16.5,18.6c0.2,1.4-0.1,2.6-0.7,3.7c-0.1,0.1-0.1,0.2-0.2,0.3
	c1.9-0.7,3.6-1.7,4.1-3.1L16.5,18.6z"/>
</svg>
