<?xml version="1.0" encoding="utf-8"?>
<!-- Generator: Adobe Illustrator 22.1.0, SVG Export Plug-In . SVG Version: 6.00 Build 0)  -->
<svg version="1.1" id="Слой_1" xmlns="http://www.w3.org/2000/svg" xmlns:xlink="http://www.w3.org/1999/xlink" x="0px" y="0px"
	 viewBox="0 0 126.4 76.3" style="enable-background:new 0 0 126.4 76.3;" xml:space="preserve">
<style type="text/css">
	.st0{fill:none;stroke:#1603AA;stroke-width:1.6372;stroke-linecap:round;stroke-linejoin:round;stroke-miterlimit:10;}
	.st1{fill:none;stroke:#23E54C;stroke-width:1.6372;stroke-miterlimit:10;}
</style>
<path class="st0" d="M9.9,23.6H4.1c-1.7,0-3,1.3-3,3v45.8c0,1.7,1.3,3,3,3h28.4c1.7,0,3-1.3,3-3V26.6c0-1.7-1.3-3-3-3h-6.2"/>
<rect x="12.2" y="17.5" transform="matrix(0.7071 -0.7071 0.7071 0.7071 -11.3097 19.8436)" class="st1" width="12.2" height="12.2"/>
<path class="st0" d="M99.8,38.9H94c-1.7,0-3,1.3-3,3v30.5c0,1.7,1.3,3,3,3h28.4c1.7,0,3-1.3,3-3V41.9c0-1.7-1.3-3-3-3h-6.2"/>
<rect x="102.1" y="32.8" transform="matrix(0.7071 -0.7071 0.7071 0.7071 4.1559 87.9058)" class="st1" width="12.2" height="12.2"/>
<path class="st1" d="M55.1,10.2h-5.8c-1.7,0-3,1.3-3,3v59.2c0,1.7,1.3,3,3,3h28.4c1.7,0,3-1.3,3-3V13.2c0-1.7-1.3-3-3-3h-6.2"/>
<rect x="57.4" y="4.1" transform="matrix(0.7071 -0.7071 0.7071 0.7071 11.3778 47.8985)" class="st1" width="12.2" height="12.2"/>
<line class="st0" x1="14.7" y1="42.3" x2="14.7" y2="58.7"/>
<line class="st0" x1="22.2" y1="42.3" x2="22.2" y2="58.7"/>
<line class="st0" x1="63.5" y1="36.9" x2="63.5" y2="53.2"/>
<line class="st0" x1="101" y1="53.3" x2="101" y2="69.6"/>
<line class="st0" x1="108.6" y1="53.3" x2="108.6" y2="69.6"/>
<line class="st0" x1="116.1" y1="53.3" x2="116.1" y2="69.6"/>
</svg>
