<?xml version="1.0" encoding="utf-8"?>
<!-- Generator: Adobe Illustrator 23.0.1, SVG Export Plug-In . SVG Version: 6.00 Build 0)  -->
<svg version="1.1" id="Слой_1" xmlns="http://www.w3.org/2000/svg" xmlns:xlink="http://www.w3.org/1999/xlink" x="0px" y="0px"
	 viewBox="0 0 90 96.95" style="enable-background:new 0 0 90 96.95;" xml:space="preserve">
<style type="text/css">
	.st0{fill:none;stroke:#1603AA;stroke-width:1.5;stroke-linecap:round;stroke-linejoin:round;stroke-miterlimit:10;}
	.st1{fill:none;stroke:#23E54C;stroke-width:1.5;stroke-miterlimit:10;}
</style>
<path class="st0" d="M39.79,8.29C17.82,10.8,0.75,29.46,0.75,52.1c0,6.43,1.38,12.54,3.85,18.05"/>
<path class="st0" d="M85.2,69.92c2.41-5.45,3.75-11.48,3.75-17.82c0-22.68-17.12-41.36-39.14-43.82"/>
<path class="st0" d="M10.46,79.71C18.54,89.76,30.94,96.2,44.85,96.2c14.22,0,26.86-6.73,34.93-17.17"/>
<line class="st1" x1="36.88" y1="56.75" x2="0.75" y2="79.03"/>
<polyline class="st1" points="33.03,70.86 37.36,56.34 22.08,53.75 "/>
<g>
	<line class="st1" x1="53.48" y1="56.75" x2="89.6" y2="79.03"/>
	<polyline class="st1" points="57.32,70.86 53,56.34 68.27,53.75 	"/>
</g>
<g>
	<line class="st1" x1="45.02" y1="42.45" x2="44.5" y2="0.01"/>
	<polyline class="st1" points="54.88,31.65 44.93,43.07 34.57,31.56 	"/>
</g>
</svg>
