<?xml version="1.0" encoding="utf-8"?>
<!-- Generator: Adobe Illustrator 23.0.1, SVG Export Plug-In . SVG Version: 6.00 Build 0)  -->
<svg version="1.1" id="Слой_1" xmlns="http://www.w3.org/2000/svg" xmlns:xlink="http://www.w3.org/1999/xlink" x="0px" y="0px"
	 viewBox="0 0 101.67 103.7" style="enable-background:new 0 0 101.67 103.7;" xml:space="preserve">
<style type="text/css">
	.st0{fill:none;stroke:#1603AA;stroke-width:1.5;stroke-linecap:round;stroke-linejoin:round;stroke-miterlimit:10;}
	.st1{fill:none;stroke:#23E54C;stroke-width:1.5;stroke-miterlimit:10;}
</style>
<g>
	
		<ellipse transform="matrix(0.8549 -0.5188 0.5188 0.8549 -8.1549 32.9188)" class="st0" cx="54.76" cy="31.04" rx="22.13" ry="26.98"/>
	<path class="st0" d="M84.26,71.37L82.82,69l-7.24,4.39l1.43,2.36c-0.28,0.76-0.23,1.64,0.23,2.39l14.25,23.47
		c0.79,1.3,2.49,1.72,3.79,0.93l4.31-2.62c1.3-0.79,1.72-2.49,0.93-3.79L86.27,72.67C85.82,71.92,85.06,71.47,84.26,71.37z"/>
	<line class="st0" x1="78.9" y1="80.87" x2="87.92" y2="75.39"/>
	<line class="st0" x1="89.28" y1="97.99" x2="98.31" y2="92.51"/>
	<line class="st0" x1="31.55" y1="21.62" x2="52.23" y2="55.7"/>
	<line class="st0" x1="35.25" y1="13.12" x2="61.75" y2="56.78"/>
	<line class="st0" x1="40.63" y1="7.73" x2="68.77" y2="54.09"/>
	<line class="st0" x1="47.88" y1="5.46" x2="74.38" y2="49.12"/>
	<line class="st0" x1="58.29" y1="6.48" x2="78.06" y2="39.06"/>
	<line class="st0" x1="31.31" y1="23.25" x2="58.47" y2="6.77"/>
	<line class="st0" x1="64.59" y1="9.85" x2="31.19" y2="30.12"/>
	<line class="st0" x1="33.02" y1="36.6" x2="69.75" y2="14.3"/>
	<line class="st0" x1="35.84" y1="42.52" x2="73.68" y2="19.55"/>
	<line class="st0" x1="39.84" y1="47.84" x2="76.57" y2="25.54"/>
	<line class="st0" x1="45.05" y1="52.06" x2="78.13" y2="31.98"/>
	<line class="st0" x1="50.47" y1="55.29" x2="78.13" y2="38.51"/>
	<path class="st0" d="M71.22,58.14c-6.37,3.87-14.1,4.09-21.33,1.31c10.85,5.85,20,4.65,25.65,13.97l7.24-4.39
		c-5.65-9.32-0.37-16.88-0.55-29.2C81.35,47.52,77.59,54.27,71.22,58.14z"/>
	
		<ellipse transform="matrix(0.8549 -0.5188 0.5188 0.8549 -8.1549 32.9188)" class="st0" cx="54.76" cy="31.04" rx="26.01" ry="31.71"/>
</g>
<path class="st1" d="M20.66,26.98C8,43.65,2.26,61.37,0.74,71.26"/>
<path class="st1" d="M23.5,43.49c-7.39,9.74-10.74,20.09-11.63,25.87"/>
<path class="st1" d="M28.84,57.73c-3.33,4.39-4.84,9.05-5.24,11.65"/>
</svg>
