<?xml version="1.0" encoding="utf-8"?>
<!-- Generator: Adobe Illustrator 22.1.0, SVG Export Plug-In . SVG Version: 6.00 Build 0)  -->
<svg version="1.1" id="Слой_1" xmlns="http://www.w3.org/2000/svg" xmlns:xlink="http://www.w3.org/1999/xlink" x="0px" y="0px"
	 viewBox="0 0 83.2 94.7" style="enable-background:new 0 0 83.2 94.7;" xml:space="preserve">
<style type="text/css">
	.st0{fill:none;stroke:#1603AA;stroke-width:1.5;stroke-linecap:round;stroke-linejoin:round;stroke-miterlimit:10;}
	.st1{fill:none;stroke:#1603AA;stroke-width:1.3883;stroke-linecap:round;stroke-linejoin:round;stroke-miterlimit:10;}
	.st2{fill:none;stroke:#23E54C;stroke-width:1.5;stroke-miterlimit:10;}
</style>
<path class="st0" d="M11.6,77.8L11.6,77.8c-5.7,0-10.4,4.6-10.4,10.4v5.7H22v-5.7C22,82.5,17.4,77.8,11.6,77.8z"/>
<circle class="st1" cx="11.6" cy="70" r="7.9"/>
<path class="st2" d="M41.8,77.8L41.8,77.8c-5.7,0-10.4,4.6-10.4,10.4v5.7h20.7v-5.7C52.1,82.5,47.5,77.8,41.8,77.8z"/>
<circle class="st2" cx="41.8" cy="70" r="7.9"/>
<path class="st0" d="M71.9,77.8L71.9,77.8c-5.7,0-10.4,4.6-10.4,10.4v5.7h20.7v-5.7C82.3,82.5,77.6,77.8,71.9,77.8z"/>
<circle class="st1" cx="71.9" cy="70" r="7.9"/>
<polygon class="st1" points="3.5,43.9 19.6,43.9 25.8,55 32,43.9 51.6,43.9 57.8,55 64,43.9 82.1,43.9 82.1,0.9 3.5,0.9 "/>
<line class="st2" x1="10.8" y1="13.2" x2="56.5" y2="13.2"/>
<line class="st2" x1="10.8" y1="23" x2="74.5" y2="23"/>
<line class="st2" x1="10.8" y1="31.6" x2="74.5" y2="31.6"/>
</svg>
