<?xml version="1.0" encoding="utf-8"?>
<!-- Generator: Adobe Illustrator 22.1.0, SVG Export Plug-In . SVG Version: 6.00 Build 0)  -->
<svg version="1.1" id="Слой_1" xmlns="http://www.w3.org/2000/svg" xmlns:xlink="http://www.w3.org/1999/xlink" x="0px" y="0px"
	 viewBox="0 0 26.5 14.3" style="enable-background:new 0 0 26.5 14.3;" xml:space="preserve">
<style type="text/css">
	.st0{fill:none;stroke:#223D7B;stroke-width:1.7266;stroke-miterlimit:10;}
	.st1{fill:#223D7B;}
</style>
<line class="st0" x1="0" y1="13.5" x2="26.5" y2="13.5"/>
<circle class="st1" cx="2.5" cy="9.3" r="1.7"/>
<circle class="st1" cx="1.7" cy="3.4" r="0.6"/>
<circle class="st1" cx="4.4" cy="3.4" r="0.6"/>
<circle class="st1" cx="1.7" cy="0.6" r="0.6"/>
<circle class="st1" cx="4.4" cy="0.6" r="0.6"/>
<circle class="st1" cx="3.1" cy="2" r="0.6"/>
<circle class="st1" cx="5.6" cy="2" r="0.6"/>
<circle class="st1" cx="6.9" cy="3.4" r="0.6"/>
<circle class="st1" cx="9.6" cy="3.4" r="0.6"/>
<circle class="st1" cx="6.9" cy="0.6" r="0.6"/>
<circle class="st1" cx="9.6" cy="0.6" r="0.6"/>
<circle class="st1" cx="8.3" cy="2" r="0.6"/>
<circle class="st1" cx="10.9" cy="2" r="0.6"/>
<circle class="st1" cx="12.1" cy="3.4" r="0.6"/>
<circle class="st1" cx="14.9" cy="3.4" r="0.6"/>
<circle class="st1" cx="12.1" cy="0.6" r="0.6"/>
<circle class="st1" cx="14.9" cy="0.6" r="0.6"/>
<circle class="st1" cx="13.6" cy="2" r="0.6"/>
<circle class="st1" cx="16.1" cy="2" r="0.6"/>
<circle class="st1" cx="17.4" cy="3.4" r="0.6"/>
<circle class="st1" cx="20.1" cy="3.4" r="0.6"/>
<circle class="st1" cx="17.4" cy="0.6" r="0.6"/>
<circle class="st1" cx="20.1" cy="0.6" r="0.6"/>
<circle class="st1" cx="18.8" cy="2" r="0.6"/>
<circle class="st1" cx="21.4" cy="2" r="0.6"/>
<circle class="st1" cx="22.6" cy="3.4" r="0.6"/>
<circle class="st1" cx="25.4" cy="3.4" r="0.6"/>
<circle class="st1" cx="22.6" cy="0.6" r="0.6"/>
<circle class="st1" cx="25.4" cy="0.6" r="0.6"/>
<circle class="st1" cx="24.1" cy="2" r="0.6"/>
<circle class="st1" cx="7.9" cy="9.3" r="1.7"/>
<circle class="st1" cx="13.3" cy="9.3" r="1.7"/>
<circle class="st1" cx="18.7" cy="9.3" r="1.7"/>
<circle class="st1" cx="24.1" cy="9.3" r="1.7"/>
<rect x="3.8" y="4.7" class="st1" width="1.7" height="1.7"/>
<rect x="7.2" y="4.7" class="st1" width="1.7" height="1.7"/>
<rect x="10.5" y="4.7" class="st1" width="1.7" height="1.7"/>
<rect x="13.8" y="4.7" class="st1" width="1.7" height="1.7"/>
<rect x="17.2" y="4.7" class="st1" width="1.7" height="1.7"/>
<rect x="20.5" y="4.7" class="st1" width="1.7" height="1.7"/>
<rect x="23.9" y="4.7" class="st1" width="1.7" height="1.7"/>
<rect x="0.7" y="4.7" class="st1" width="1.7" height="1.7"/>
</svg>
