<?xml version="1.0" encoding="utf-8"?>
<!-- Generator: Adobe Illustrator 22.1.0, SVG Export Plug-In . SVG Version: 6.00 Build 0)  -->
<svg version="1.1" id="Слой_1" xmlns="http://www.w3.org/2000/svg" xmlns:xlink="http://www.w3.org/1999/xlink" x="0px" y="0px"
	 viewBox="0 0 25.8 25.2" style="enable-background:new 0 0 25.8 25.2;" xml:space="preserve">
<style type="text/css">
	.st0{fill:none;stroke:#ffffff;stroke-width:1.6;stroke-linecap:round;stroke-linejoin:round;stroke-miterlimit:10;}
</style>
<g>
	<path class="st0" d="M7.4,14.2c1.2-0.8,2.3-0.4,2.7,0"/>
	<path class="st0" d="M15.5,14.2c1.2-0.8,2.3-0.4,2.7,0"/>
</g>
<path class="st0" d="M14.6,19c-0.2,0.5-0.8,1.1-1.7,1.1s-1.6-0.5-1.7-1.1"/>
<path class="st0" d="M3.2,14.7l-2-2.1C1.2,6.2,6.4,1,12.8,1l0,0c6.4,0,11.7,5.2,11.7,11.7l-2.2,2.1"/>
<path class="st0" d="M3.2,14.7L3.2,14.7c0,5.3,4.3,9.6,9.6,9.6l0,0c5.3,0,9.6-4.3,9.6-9.6l0,0"/>
<path class="st0" d="M22.3,10.4"/>
<path class="st0" d="M10.8,7.1c0,0,0,3.4,3.4,3.4"/>
<g>
	<path class="st0" d="M22.1,17.9c0,0,2.7,0.3,2.7-3.1"/>
	<path class="st0" d="M3.5,17.9c0,0-2.7,0.3-2.7-3.1"/>
</g>
</svg>
