<?xml version="1.0" encoding="utf-8"?>
<!-- Generator: Adobe Illustrator 22.1.0, SVG Export Plug-In . SVG Version: 6.00 Build 0)  -->
<svg version="1.1" id="Слой_1" xmlns="http://www.w3.org/2000/svg" xmlns:xlink="http://www.w3.org/1999/xlink" x="0px" y="0px"
	 viewBox="0 0 27.1 32.9" style="enable-background:new 0 0 27.1 32.9;" xml:space="preserve">
<style type="text/css">
	
		.st0{clip-path:url(#SVGID_2_);fill:none;stroke:#0d227d;stroke-width:1.6;stroke-linecap:round;stroke-linejoin:round;stroke-miterlimit:10;}
</style>
<g>
	<defs>
		<rect id="SVGID_1_" y="0" width="27.1" height="32.9"/>
	</defs>
	<clipPath id="SVGID_2_">
		<use xlink:href="#SVGID_1_"  style="overflow:visible;"/>
	</clipPath>
	<path class="st0" d="M8.2,14c1.2-0.8,2.3-0.4,2.7,0"/>
	<path class="st0" d="M16.3,14c1.2-0.8,2.3-0.4,2.7,0"/>
	<path class="st0" d="M20.3,21.3c3.6,2.3,6,6.2,6,10.8"/>
	<path class="st0" d="M0.8,32.1c0-4.5,2.4-8.5,5.9-10.8"/>
	<path class="st0" d="M15.3,18.9c-0.2,0.5-0.8,1.1-1.7,1.1c-1,0-1.6-0.5-1.7-1.1"/>
	<path class="st0" d="M3.9,14.5l-2-2.1C1.9,6,7.1,0.8,13.6,0.8C20,0.8,25.2,6,25.2,12.5l-2.2,2.1"/>
	<path class="st0" d="M3.9,14.5L3.9,14.5c0,5.3,4.3,9.6,9.6,9.6c5.3,0,9.6-4.3,9.6-9.6"/>
	<path class="st0" d="M11.5,7c0,0,0,3.4,3.4,3.4"/>
	<path class="st0" d="M22.8,17.7c0,0,2.7,0.3,2.7-3.1"/>
	<path class="st0" d="M4.3,17.7c0,0-2.7,0.3-2.7-3.1"/>
</g>
</svg>
