<?xml version="1.0" encoding="utf-8"?>
<!-- Generator: Adobe Illustrator 22.1.0, SVG Export Plug-In . SVG Version: 6.00 Build 0)  -->
<svg version="1.1" id="Слой_1" xmlns="http://www.w3.org/2000/svg" xmlns:xlink="http://www.w3.org/1999/xlink" x="0px" y="0px"
	 viewBox="0 0 30 23" style="enable-background:new 0 0 30 23;" xml:space="preserve">
<style type="text/css">
	.st0{clip-path:url(#SVGID_2_); fill:#23E54C}
</style>
<g>
	<defs>
		<rect id="SVGID_1_" width="30" height="23"/>
	</defs>
	<clipPath id="SVGID_2_">
		<use xlink:href="#SVGID_1_"  style="overflow:visible;"/>
	</clipPath>
	<path class="st0" d="M28.9,18.1c-1-2.6-4-4.1-7.9-4.1c-3.9,0-6.9,1.5-7.9,4.1c-0.8,1.9-1,3.6-1.1,3.7c-0.1,0.5,0.3,1.1,0.8,1.1
		c0.5,0.1,1.1-0.3,1.1-0.8c0,0,0.3-1.6,0.9-3.3C16,16.2,19.8,16,21,16c1.2,0,5,0.2,6.1,2.9c0.7,1.7,0.9,3.3,0.9,3.3
		c0.1,0.5,0.5,0.8,1,0.8c0.1,0,0.1,0,0.2,0c0.5-0.1,0.9-0.6,0.8-1.1C30,21.8,29.7,20.1,28.9,18.1"/>
	<path class="st0" d="M21,12c3.3,0,6-2.7,6-6s-2.7-6-6-6s-6,2.7-6,6S17.7,12,21,12 M21,2c2.2,0,4,1.8,4,4s-1.8,4-4,4s-4-1.8-4-4
		S18.8,2,21,2"/>
	<path class="st0" d="M11.5,15.1C10.1,14.2,8.3,14,7.1,14c-3.1,0-5.4,1.2-6.3,3.3C0.2,18.8,0,20.1,0,20.2c-0.1,0.5,0.3,1.1,0.8,1.1
		c0.1,0,0.1,0,0.2,0c0.5,0,0.9-0.4,1-0.8c0,0,0.2-1.2,0.7-2.5c0.8-1.9,3.6-2,4.4-2c1.4,0,2.5,0.3,3.4,0.8c0.5,0.3,1.1,0.2,1.4-0.3
		C12.1,16.1,12,15.4,11.5,15.1"/>
	<path class="st0" d="M7.1,12.6c2.7,0,4.8-2.2,4.8-4.8S9.7,3,7.1,3S2.3,5.2,2.3,7.8S4.4,12.6,7.1,12.6 M7.1,5c1.5,0,2.8,1.3,2.8,2.8
		s-1.3,2.8-2.8,2.8S4.3,9.4,4.3,7.8S5.5,5,7.1,5"/>
</g>
</svg>
