<?xml version="1.0" encoding="utf-8"?>
<!-- Generator: Adobe Illustrator 22.1.0, SVG Export Plug-In . SVG Version: 6.00 Build 0)  -->
<svg version="1.1" id="Слой_1" xmlns="http://www.w3.org/2000/svg" xmlns:xlink="http://www.w3.org/1999/xlink" x="0px" y="0px"
	 viewBox="0 0 169.1 368.6" style="enable-background:new 0 0 169.1 368.6;" xml:space="preserve">
<style type="text/css">
	.st0{opacity:0.15;}
	.st1{fill:#001C80;}
	.st2{fill:#FFFFFF;stroke:#001C80;stroke-width:3;stroke-miterlimit:10;}
	.st3{fill:none;stroke:#001C80;stroke-width:3;stroke-miterlimit:10;}
	.st4{fill:none;stroke:#1F3D7B;stroke-width:2;stroke-miterlimit:10;}
	.st5{fill:#00E338;}
	.st6{fill:#FFFFFF;}
	.st7{opacity:0.6;}
</style>
<g class="st0">
	
		<ellipse transform="matrix(2.344119e-02 -0.9997 0.9997 2.344119e-02 -20.459 185.164)" class="st1" cx="84.5" cy="103.1" rx="98.4" ry="77.5"/>
</g>
<path class="st2" d="M98.7,261.8l0-9l-27.5,0l0,9c-2.1,1.6-3.4,4.2-3.4,7l0.1,89.3c0,5,4,9,9,9l16.4,0c5,0,9-4,9-9l-0.1-89.3
	C102.1,266,100.8,263.5,98.7,261.8z"/>
<line class="st3" x1="67.9" y1="279.2" x2="102.2" y2="279.2"/>
<line class="st3" x1="68" y1="347.3" x2="102.3" y2="347.3"/>
<line class="st4" x1="30.4" y1="30.6" x2="30.6" y2="174.6"/>
<line class="st4" x1="57.7" y1="11.2" x2="58" y2="195.8"/>
<line class="st4" x1="84.4" y1="4.6" x2="84.8" y2="200.6"/>
<line class="st4" x1="111.1" y1="11.2" x2="111.4" y2="195.7"/>
<line class="st4" x1="141.4" y1="33.8" x2="141.6" y2="171.5"/>
<line class="st4" x1="26.6" y1="35.2" x2="141.4" y2="35"/>
<line class="st4" x1="154.5" y1="56" x2="13.4" y2="56.2"/>
<line class="st4" x1="6.9" y1="79.6" x2="162.2" y2="79.4"/>
<line class="st4" x1="4.6" y1="103.2" x2="164.5" y2="103"/>
<line class="st4" x1="7" y1="127.1" x2="162.2" y2="126.9"/>
<line class="st4" x1="15.2" y1="149.9" x2="155" y2="149.7"/>
<line class="st4" x1="25.9" y1="170.1" x2="142.8" y2="169.9"/>
<path class="st2" d="M84.7,203.1c-24.2,0-46.1-12.3-61.5-32.2c20.4,34.5,47.8,46.6,47.9,82l27.5,0c-0.1-35.4,27.3-47.6,47.6-82.2
	C130.8,190.6,108.9,203.1,84.7,203.1z"/>
<g>
	<path class="st1" d="M84.5,0v9h0c41.6,0,75.5,42.1,75.6,93.9c0.1,51.9-33.7,94.1-75.4,94.2l-0.1,0C43,197.1,9.1,155,9,103.2
		C9,77.7,17,53.9,31.6,36C45.8,18.6,64.6,9,84.4,9l0.1,0L84.5,0 M84.5,0c0,0-0.1,0-0.1,0C37.7,0.1-0.1,46.3,0,103.2
		c0.1,56.9,38,102.9,84.6,102.9c0,0,0.1,0,0.1,0c46.7-0.1,84.5-46.3,84.4-103.2C169,46,131.1,0,84.5,0L84.5,0z"/>
</g>
<g>
	<g>
		<path class="st5" d="M120,98.9C120,79.6,104.4,64,85.1,64S50.2,79.6,50.2,98.9c0,3.6,0.5,7,1.5,10.2c0.4,0.4,0.8,0.9,1.3,1.3
			c1.1,0.9,2.3,1.7,3.6,2.1c1.3,0.4,2.6,0.5,4,0.2c1.3-0.3,2.6-0.8,3.8-1.5c1.2-0.7,2.4-1.6,3.4-2.5c1.1-0.9,2.1-2,3-3.1
			c0.9-1.1,1.8-2.2,2.7-3.4c1.7-2.4,3.3-4.9,4.9-7.4c0.8-1.3,1.6-2.5,2.4-3.8c0.8-1.3,1.7-2.5,2.7-3.8c0.5-0.6,1-1.2,1.5-1.8
			c0.5-0.6,1.1-1.2,1.6-1.8c1.1-1.2,2.4-2.3,3.9-3.2c1.4-0.9,3.1-1.7,4.8-2.1c0.9-0.2,1.8-0.4,2.6-0.4c0.9-0.1,1.8-0.1,2.7,0
			c1.8,0.1,3.4,0.5,5,1.1c1.6,0.6,3.2,1.4,4.6,2.4c2.8,2.1,4.9,5.1,6.1,8.3c0.6,1.6,1,3.2,1.2,4.9c0.2,1.6,0.3,3.3,0.2,4.9
			c-0.2,3.2-0.8,6.4-1.9,9.4c-1.1,3-2.5,5.8-4.2,8.4c-1.7,2.6-3.7,5-5.9,7.2c-3.4,3.4-7.4,6.2-11.6,8.3
			C109.1,128.5,120,114.9,120,98.9z"/>
		<path class="st5" d="M103.9,122.4c1.9-2.2,3.5-4.6,4.9-7.1c1.4-2.5,2.5-5.2,3.3-7.9c0.8-2.7,1.2-5.5,1.2-8.3
			c0-2.7-0.4-5.5-1.4-7.9c-1-2.4-2.6-4.4-4.6-5.9c-1-0.7-2.1-1.3-3.3-1.7c-0.6-0.2-1.2-0.4-1.8-0.5c-0.6-0.1-1.3-0.2-1.9-0.3
			c-2.5-0.2-4.8,0.4-7,1.7c-0.5,0.3-1.1,0.7-1.6,1.1c-0.5,0.4-1,0.8-1.5,1.3c-1,0.9-2,1.9-2.9,3c-0.9,1.1-1.9,2.2-2.8,3.4
			c-0.9,1.2-1.8,2.3-2.7,3.5c-1.8,2.4-3.6,4.8-5.6,7.2c-1,1.2-2,2.3-3.1,3.4c-1.1,1.1-2.3,2.1-3.5,3.1c-1.3,0.9-2.6,1.8-4,2.5
			c-1.4,0.7-3,1.3-4.6,1.5c-0.8,0.1-1.7,0.1-2.5,0c-0.8-0.1-1.6-0.3-2.4-0.6c-1.2-0.5-2.3-1.2-3.3-2c5.2,12.7,17.7,21.7,32.3,21.7
			c2,0,3.9-0.2,5.8-0.5C95.9,130.3,100.3,126.7,103.9,122.4z"/>
		<path class="st6" d="M111.8,117c1.7-2.6,3.1-5.4,4.2-8.4c1.1-3,1.7-6.1,1.9-9.4c0.1-1.6,0-3.3-0.2-4.9c-0.2-1.6-0.6-3.3-1.2-4.9
			c-1.2-3.2-3.3-6.2-6.1-8.3c-1.4-1-3-1.9-4.6-2.4c-1.6-0.6-3.3-1-5-1.1c-0.9-0.1-1.8-0.1-2.7,0c-0.9,0.1-1.8,0.2-2.6,0.4
			c-1.7,0.4-3.4,1.2-4.8,2.1c-1.5,0.9-2.7,2-3.9,3.2c-0.6,0.6-1.1,1.2-1.6,1.8c-0.5,0.6-1,1.2-1.5,1.8c-1,1.2-1.8,2.5-2.7,3.8
			c-0.8,1.3-1.6,2.6-2.4,3.8c-1.6,2.5-3.2,5-4.9,7.4c-0.9,1.2-1.7,2.3-2.7,3.4c-0.9,1.1-2,2.1-3,3.1c-1.1,0.9-2.2,1.8-3.4,2.5
			c-1.2,0.7-2.5,1.3-3.8,1.5c-1.3,0.3-2.7,0.2-4-0.2c-1.3-0.4-2.5-1.1-3.6-2.1c-0.5-0.4-0.9-0.8-1.3-1.3c0.3,1,0.7,2,1.1,3
			c1,0.8,2,1.5,3.3,2c0.8,0.3,1.6,0.5,2.4,0.6c0.8,0.1,1.7,0.1,2.5,0c1.6-0.2,3.2-0.8,4.6-1.5c1.4-0.7,2.7-1.6,4-2.5
			c1.2-1,2.4-2,3.5-3.1c1.1-1.1,2.1-2.2,3.1-3.4c2-2.3,3.8-4.8,5.6-7.2c0.9-1.2,1.8-2.4,2.7-3.5c0.9-1.2,1.8-2.3,2.8-3.4
			c0.9-1.1,1.9-2.1,2.9-3c0.5-0.5,1-0.9,1.5-1.3c0.5-0.4,1.1-0.8,1.6-1.1c2.2-1.3,4.5-1.9,7-1.7c0.6,0,1.2,0.1,1.9,0.3
			c0.6,0.1,1.2,0.3,1.8,0.5c1.2,0.4,2.3,1,3.3,1.7c2,1.4,3.6,3.5,4.6,5.9c1,2.4,1.4,5.1,1.4,7.9c0,2.7-0.5,5.5-1.2,8.3
			c-0.8,2.7-1.9,5.4-3.3,7.9c-1.4,2.5-3,4.9-4.9,7.1c-3.6,4.3-8,7.9-12.9,10.9c1.1-0.2,2.3-0.4,3.4-0.7c4.2-2.1,8.1-4.9,11.6-8.3
			C108.1,122.1,110.1,119.6,111.8,117z"/>
	</g>
	<g class="st7">
		
			<image style="overflow:visible;" width="569" height="543" xlink:href="66A66570.png"  transform="matrix(0.24 0 0 0.24 13.9932 39.6243)">
		</image>
	</g>
	<g>
		
			<image style="overflow:visible;" width="592" height="592" xlink:href="66A66571.png"  transform="matrix(0.24 0 0 0.24 13.9932 27.8643)">
		</image>
	</g>
</g>
</svg>
