<?xml version="1.0" encoding="utf-8"?>
<!-- Generator: Adobe Illustrator 22.1.0, SVG Export Plug-In . SVG Version: 6.00 Build 0)  -->
<svg version="1.1" id="Слой_1" xmlns="http://www.w3.org/2000/svg" xmlns:xlink="http://www.w3.org/1999/xlink" x="0px" y="0px"
	 viewBox="0 0 82.4 82.5" style="enable-background:new 0 0 82.4 82.5;" xml:space="preserve">
	 <style type="text/css">
		.st0{fill:#23E54C}
	</style>
<path class='st0' d="M44,60.2c-6.6,0-12-1.9-15.7-5.6c-11.2-11.2-4.2-34.3,6-44.5c5.9-5.9,15.1-9.6,23.9-9.6c7,0,13.3,2.4,17.6,6.7
	c5.1,5.1,7.4,12.5,6.5,21C81.4,36,78,43.5,72.8,48.7C66,55.5,54.1,60.2,44,60.2z M58.2,4.5c-7.8,0-15.9,3.2-21.1,8.5
	c-8.8,8.8-15,29.8-6,38.8c3.7,3.7,9,4.5,12.8,4.5c9.2,0,19.9-4.3,26-10.4c4.5-4.5,7.6-11.3,8.3-18.1c0.7-7.2-1.1-13.5-5.3-17.7
	C69.4,6.4,64.2,4.5,58.2,4.5z"/>
<path class='st0' d="M8,82.5L8,82.5c-0.5,0-1-0.2-1.4-0.6l-6-5.9c-0.8-0.8-0.8-2.1,0-2.8l17.9-17.9c0.8-0.8,2.1-0.8,2.8,0l6,5.9
	c0.8,0.8,0.8,2.1,0,2.8L9.4,81.9C9,82.3,8.5,82.5,8,82.5z M4.8,74.6L8,77.7l15-15l-3.1-3.1L4.8,74.6z"/>
<path class='st0' d="M21.3,58.1l-2.8-2.8c2.6-2.6,4.1-13.3,4.4-19.8l4,0.2C26.7,38.7,25.7,53.7,21.3,58.1z"/>
<path class='st0' d="M27.2,64.1l-2.8-2.8c2.8-2.8,10.3-4.5,22.7-5.2l0.3,4h-0.1C32,60.9,28.2,63.1,27.2,64.1z"/>
<g>
	<path class='st0' d="M52.6,46.6c-4.4,0-8.6-1.7-11.7-4.9c-6.4-6.4-6.4-16.9,0-23.4c6.2-6.3,17.2-6.3,23.4,0c3.1,3.1,4.8,7.3,4.8,11.7
		c0,4.4-1.7,8.6-4.8,11.7C61.1,44.9,57,46.6,52.6,46.6z M52.6,18.1c-3.2,0-6.2,1.3-8.5,3.5c-4.7,4.7-4.7,12.3,0,17
		c4.5,4.5,12.5,4.5,17,0c2.3-2.3,3.5-5.3,3.5-8.5c0-3.2-1.2-6.2-3.5-8.5C58.8,19.3,55.8,18.1,52.6,18.1z"/>
</g>
</svg>
