<?xml version="1.0" encoding="utf-8"?>
<!-- Generator: Adobe Illustrator 22.1.0, SVG Export Plug-In . SVG Version: 6.00 Build 0)  -->
<svg version="1.1" id="Слой_1" xmlns="http://www.w3.org/2000/svg" xmlns:xlink="http://www.w3.org/1999/xlink" x="0px" y="0px"
	 viewBox="0 0 50.2 105.2" style="enable-background:new 0 0 50.2 105.2;" xml:space="preserve">
<style type="text/css">
	.st0{fill:white;stroke:#223D7B;stroke-width:1.3927;stroke-miterlimit:10;}
</style>
<g>
	<path class="st0" d="M3,105.1L12.5,42h30.8c2.4,0,4.3-1.9,4.3-4.3v0c0-2.4-1.9-4.3-4.3-4.3H16.8L10.3,4.1c-0.5-2.3-2.7-3.7-5-3.3
		L4.3,0.9c-2.4,0.4-4,2.7-3.5,5.2l7.4,36l4.3-0.1"/>
	<line class="st0" x1="49.5" y1="105.1" x2="40" y2="42"/>
	<line class="st0" x1="40" y1="42" x2="8.6" y2="65"/>
	<line class="st0" x1="43.2" y1="64.4" x2="4.8" y2="93.1"/>
	<line class="st0" x1="12.5" y1="42" x2="43.2" y2="64.4"/>
	<line class="st0" x1="9.1" y1="64.7" x2="47.8" y2="94.2"/>
</g>
</svg>
