<?xml version="1.0" encoding="utf-8"?>
<!-- Generator: Adobe Illustrator 23.0.1, SVG Export Plug-In . SVG Version: 6.00 Build 0)  -->
<svg version="1.1" id="Слой_1" xmlns="http://www.w3.org/2000/svg" xmlns:xlink="http://www.w3.org/1999/xlink" x="0px" y="0px"
	 viewBox="0 0 82.91 97.78" style="enable-background:new 0 0 82.91 97.78;" xml:space="preserve">
<style type="text/css">
	.st0{fill:none;stroke:#1603AA;stroke-width:1.5;stroke-linecap:round;stroke-linejoin:round;stroke-miterlimit:10;}
	.st1{fill:none;stroke:#23E54C;stroke-width:1.5;stroke-miterlimit:10;}
</style>
<path class="st0" d="M7.91,62.65c-0.86,1.38-1.15,2.83-0.46,4.15c1.55,2.95,4.76,1.87,10.99-3.01"/>
<path class="st0" d="M11.26,73.35c-0.86,1.38-1.15,2.83-0.46,4.15c1.47,2.81,4.45,1.96,10.09-2.32"/>
<path class="st0" d="M78.14,2.07c1.78,2.69,3.17,5.94,3.72,9.85c1.69,12.02-4.3,17.59-7.25,20.58"/>
<path class="st0" d="M78.88,27.4c-3.72,11.3,2.32,20.71,1.36,32.92c-0.96,12.21-6.27,17.34-6.27,17.34"/>
<path class="st0" d="M72.88,60.32c0,0,3.06,13.67-2.39,36.72"/>
<path class="st1" d="M53.89,76.68c-0.09,1.8,0.07,3.47,0.42,4.79l1.22,4.7"/>
<path class="st1" d="M66.77,41.06c0.97,3.79,1.75,16.92-6.39,22.48c-1.08,0.74-2.01,1.62-2.79,2.6"/>
<path class="st1" d="M53.93,35.55c-2.47,1.57-7.35,4.64-8.57,10.23c-1.22,5.59,0,10.88,0,10.88"/>
<path class="st0" d="M27.6,0.75c-2.8,11.27,2.54,13.9,3.89,23.76c1.35,9.86-4.86,8.09-6.79,33.61c-1.45,19.1,6.85,29.56,6.85,29.56
	c0.9,3.42,1.29,9.35,1.29,9.35"/>
<path class="st1" d="M44.06,37.91c0,0,1.84,2.39,1.3,7.87"/>
<path class="st0" d="M27.6,41.3c0,0-8.51,9.34-16.28,12.06s-10.57,0-10.57,0"/>
</svg>
