<?xml version="1.0" encoding="utf-8"?>
<!-- Generator: Adobe Illustrator 22.1.0, SVG Export Plug-In . SVG Version: 6.00 Build 0)  -->
<svg version="1.1" id="Слой_1" xmlns="http://www.w3.org/2000/svg" xmlns:xlink="http://www.w3.org/1999/xlink" x="0px" y="0px"
	 viewBox="0 0 33.9 33.9" style="enable-background:new 0 0 33.9 33.9;" xml:space="preserve">
<style type="text/css">
	
		.st0{clip-path:url(#SVGID_2_);fill:none;stroke:#0d227d;stroke-width:1.6;stroke-linecap:round;stroke-linejoin:round;stroke-miterlimit:10;}
</style>
<g>
	<defs>
		<rect id="SVGID_1_" y="0" width="33.9" height="33.9"/>
	</defs>
	<clipPath id="SVGID_2_">
		<use xlink:href="#SVGID_1_"  style="overflow:visible;"/>
	</clipPath>
	<path class="st0" d="M11.5,11.6L0.8,22.4l10.7,10.7c0,0,3-3,3.8-3.8c0.3,3.3,3.9,3.5,5.2,2c1.4-1.5,1-4.8-2-5.1
		c0.5-0.5,3.7-3.8,3.7-3.8s-3.2-3-3.7-3.5c-0.5,2-2.7,3.7-4.8,1.8c-2.4-2-0.3-5.2,1.3-5.4C14.6,14.9,11.5,11.6,11.5,11.6z"/>
	<path class="st0" d="M33.1,11.5L22.4,0.8L11.6,11.5c0,0,3,3,3.8,3.8c-3.3,0.3-3.5,3.9-2,5.2c1.5,1.4,4.8,1,5.1-2
		c0.5,0.5,3.8,3.7,3.8,3.7s3-3.2,3.5-3.7c-2-0.5-3.7-2.7-1.8-4.8c2-2.4,5.2-0.3,5.4,1.3C29.8,14.6,33.1,11.5,33.1,11.5z"/>
</g>
</svg>
