<?xml version="1.0" encoding="utf-8"?>
<!-- Generator: Adobe Illustrator 22.1.0, SVG Export Plug-In . SVG Version: 6.00 Build 0)  -->
<svg version="1.1" id="Слой_1" xmlns="http://www.w3.org/2000/svg" xmlns:xlink="http://www.w3.org/1999/xlink" x="0px" y="0px"
	 viewBox="0 0 78.4 78" style="enable-background:new 0 0 78.4 78;" xml:space="preserve">
<style type="text/css">
	.st0{fill:none;stroke:#1603AA;stroke-width:1.5;stroke-linecap:round;stroke-linejoin:round;stroke-miterlimit:10;}
	.st1{fill:none;stroke:#23E54C;stroke-width:1.5;stroke-linecap:round;stroke-miterlimit:10;}
</style>
<path class="st0" d="M77.4,59.9c-3.2-3.1-9.3-10.5-11-13.7"/>
<path class="st0" d="M45.4,5.6C42.3,2.3,38.7,0.6,34,2.1S23.2,4.9,23.3,7.2s1.8,5.3,10.1,6.2"/>
<path class="st0" d="M23.3,6.3c-8.4-3.4-12.3,5.3-9.1,9c-5.4,1.7-7,7.4-3.7,9.5c-3.7,1.4-6.5,8.7-1.7,10.3c-3.9,2.6-4.4,8.1-0.7,9.4
	s5.1,1.7,5.1,1.7"/>
<path class="st0" d="M29.3,12.7c0,0,4.8,3,7,4.8c2.2,1.8,0.3,8.7-4,7.4s-18.1-9.5-18.1-9.5"/>
<path class="st0" d="M32.8,25c1.4,2.7,2.6,6.2-2,8.4C27.9,32.6,10.2,25,10.2,25"/>
<path class="st0" d="M30.8,33.4c1.2,2.4-0.6,7.7-4.1,6.8c-3.5-0.9-17.6-5.1-17.6-5.1"/>
<path class="st0" d="M43.9,61.4c2.9,2.8,7.8,12.2,9,15.5"/>
<path class="st1" d="M23.9,76.8c1.8-4.3,9.6-15.1,11.7-16c2.2-0.9,6.5,1.7,9.8,0c3.3-1.7,21.8-13,26.5-20.8s-2.2-11.1-4.5-9.9
	c5.2-3.4-0.1-12.2-5.3-8.8c7-5,0.1-12.2-3.2-10.1c4.3-2.7-1.1-13.6-7.4-9.6S33,13.7,33,13.7"/>
<path class="st1" d="M21.5,40.2c-2.3,3.6-9.8,5.7-12.4,9.6S1.1,63,1.1,63"/>
</svg>
